<svg width="36" height="36" viewBox="0 0 36 36" fill="none" xmlns="http://www.w3.org/2000/svg">
<path d="M27.4921 33.7503C26.1196 33.7503 24.1917 33.2539 21.3046 31.641C17.7939 29.6722 15.0784 27.8546 11.5867 24.372C8.22017 21.0076 6.58188 18.8293 4.28899 14.657C1.69868 9.94603 2.14024 7.47665 2.63384 6.42126C3.22165 5.15986 4.08931 4.4054 5.21079 3.65657C5.84779 3.23922 6.52189 2.88146 7.22454 2.58782C7.29485 2.55759 7.36024 2.52876 7.4186 2.50275C7.76665 2.34595 8.29399 2.109 8.96196 2.36212C9.40774 2.52946 9.80571 2.87189 10.4287 3.48712C11.7063 4.74712 13.4521 7.55329 14.0962 8.93142C14.5286 9.86025 14.8148 10.4734 14.8155 11.161C14.8155 11.9661 14.4105 12.587 13.919 13.257C13.8269 13.3829 13.7355 13.5031 13.6469 13.6199C13.1118 14.323 12.9944 14.5262 13.0717 14.889C13.2285 15.6181 14.3978 17.7887 16.3195 19.7061C18.2411 21.6235 20.3491 22.719 21.081 22.8751C21.4593 22.9559 21.6667 22.8336 22.3924 22.2795C22.4964 22.2001 22.6033 22.1178 22.7151 22.0356C23.4646 21.478 24.0567 21.0835 24.8427 21.0835H24.847C25.5311 21.0835 26.1168 21.3802 27.0871 21.8696C28.3527 22.5081 31.2433 24.2314 32.511 25.5104C33.1277 26.132 33.4715 26.5285 33.6395 26.9736C33.8927 27.6437 33.6543 28.1689 33.4989 28.5205C33.4729 28.5788 33.4441 28.6428 33.4138 28.7138C33.1179 29.4152 32.758 30.0879 32.3388 30.7234C31.5913 31.8413 30.8341 32.7069 29.5699 33.2954C28.9207 33.6025 28.2102 33.7581 27.4921 33.7503Z" fill="black"/>
</svg>
