<svg width="26" height="26" viewBox="0 0 26 26" fill="none" xmlns="http://www.w3.org/2000/svg">
<path d="M18.0881 7.91211L15.9233 14.4053C15.8055 14.7588 15.607 15.08 15.3435 15.3435C15.08 15.607 14.7588 15.8055 14.4053 15.9233L7.91211 18.0881L10.0769 11.5949C10.1947 11.2414 10.3932 10.9202 10.6567 10.6567C10.9202 10.3932 11.2414 10.1947 11.5949 10.0769L18.0881 7.91211Z" stroke="#909090" stroke-width="1.5" stroke-linecap="round" stroke-linejoin="round"/>
<path d="M13 25C19.6274 25 25 19.6274 25 13C25 6.37258 19.6274 1 13 1C6.37258 1 1 6.37258 1 13C1 19.6274 6.37258 25 13 25Z" stroke="#909090" stroke-width="1.5" stroke-linecap="round" stroke-linejoin="round"/>
</svg>
