<svg width="26" height="26" viewBox="0 0 26 26" fill="none" xmlns="http://www.w3.org/2000/svg">
<path d="M16.5294 13V20.0588M13 16.5294H20.0588" stroke="#909090" stroke-width="1.5" stroke-linecap="round" stroke-linejoin="round"/>
<path d="M22.5796 8.05859H10.4788C9.14214 8.05859 8.05859 9.14214 8.05859 10.4788V22.5796C8.05859 23.9162 9.14214 24.9998 10.4788 24.9998H22.5796C23.9162 24.9998 24.9998 23.9162 24.9998 22.5796V10.4788C24.9998 9.14214 23.9162 8.05859 22.5796 8.05859Z" stroke="#909090" stroke-width="1.5" stroke-linecap="round" stroke-linejoin="round"/>
<path d="M3.42017 17.9412C2.08908 17.9412 1 16.8521 1 15.521V3.42017C1 2.08908 2.08908 1 3.42017 1H15.521C16.8521 1 17.9412 2.08908 17.9412 3.42017" stroke="#909090" stroke-width="1.5" stroke-linecap="round" stroke-linejoin="round"/>
</svg>
