<svg width="18" height="17" viewBox="0 0 18 17" fill="none" xmlns="http://www.w3.org/2000/svg">
<path d="M13.1538 0C11.3703 0 9.84115 1.57154 9 3.96779C8.15885 1.57154 6.62971 0 4.84615 0C2.12885 0 0 3.64933 0 8.30769C0 12.9661 2.12885 16.6154 4.84615 16.6154C6.62971 16.6154 8.15885 15.0438 9 12.6476C9.84115 15.0438 11.3703 16.6154 13.1538 16.6154C15.8712 16.6154 18 12.9661 18 8.30769C18 3.64933 15.8712 0 13.1538 0ZM7.17577 13.3607C6.5276 14.5488 5.67865 15.2308 4.84615 15.2308C4.01365 15.2308 3.16471 14.5488 2.51654 13.3607C2.0975 12.566 1.79886 11.7136 1.63038 10.8312C2.05216 11.0218 2.51499 11.1036 2.97656 11.0693C3.43813 11.0349 3.88373 10.8854 4.27262 10.6344C4.6615 10.3834 4.98127 10.0389 5.20269 9.63247C5.42412 9.22601 5.54013 8.77054 5.54013 8.30769C5.54013 7.84484 5.42412 7.38937 5.20269 6.98292C4.98127 6.57647 4.6615 6.232 4.27262 5.981C3.88373 5.73 3.43813 5.58048 2.97656 5.54611C2.51499 5.51173 2.05216 5.5936 1.63038 5.78423C1.79886 4.90182 2.0975 4.04934 2.51654 3.25471C3.16471 2.06654 4.01365 1.38462 4.84615 1.38462C5.67865 1.38462 6.5276 2.06654 7.17577 3.25471C7.90529 4.5926 8.30769 6.3874 8.30769 8.30769C8.30769 10.228 7.90529 12.0228 7.17577 13.3607ZM15.4835 13.3607C14.8353 14.5488 13.9863 15.2308 13.1538 15.2308C12.3213 15.2308 11.4724 14.5488 10.8242 13.3607C10.4052 12.566 10.1066 11.7136 9.93808 10.8312C10.3599 11.0218 10.8227 11.1036 11.2843 11.0693C11.7458 11.0349 12.1914 10.8854 12.5803 10.6344C12.9692 10.3834 13.289 10.0389 13.5104 9.63247C13.7318 9.22601 13.8478 8.77054 13.8478 8.30769C13.8478 7.84484 13.7318 7.38937 13.5104 6.98292C13.289 6.57647 12.9692 6.232 12.5803 5.981C12.1914 5.73 11.7458 5.58048 11.2843 5.54611C10.8227 5.51173 10.3599 5.5936 9.93808 5.78423C10.1066 4.90182 10.4052 4.04934 10.8242 3.25471C11.4724 2.06654 12.3213 1.38462 13.1538 1.38462C13.9863 1.38462 14.8353 2.06654 15.4835 3.25471C16.213 4.5926 16.6154 6.3874 16.6154 8.30769C16.6154 10.228 16.213 12.0228 15.4835 13.3607Z" fill="#8C8C8C"/>
</svg>
