<svg width="28" height="26" viewBox="0 0 28 26" fill="none" xmlns="http://www.w3.org/2000/svg">
<path d="M12.6992 19.2004L15.2992 21.8004C15.5553 22.0565 15.8593 22.2596 16.1939 22.3982C16.5285 22.5368 16.8871 22.6081 17.2492 22.6081C17.6114 22.6081 17.97 22.5368 18.3046 22.3982C18.6391 22.2596 18.9431 22.0565 19.1992 21.8004C19.4553 21.5443 19.6584 21.2403 19.797 20.9057C19.9356 20.5711 20.0069 20.2125 20.0069 19.8504C20.0069 19.4882 19.9356 19.1296 19.797 18.7951C19.6584 18.4605 19.4553 18.1565 19.1992 17.9004" stroke="#909090" stroke-width="1.5" stroke-linecap="round" stroke-linejoin="round"/>
<path d="M16.5995 15.3006L19.8495 18.5506C20.3667 19.0678 21.0681 19.3584 21.7995 19.3584C22.5309 19.3584 23.2323 19.0678 23.7495 18.5506C24.2667 18.0335 24.5572 17.332 24.5572 16.6006C24.5572 15.8693 24.2667 15.1678 23.7495 14.6506L18.7055 9.60665C17.9743 8.87631 16.983 8.46608 15.9495 8.46608C14.916 8.46608 13.9248 8.87631 13.1935 9.60665L12.0495 10.7506C11.5323 11.2678 10.8309 11.5584 10.0995 11.5584C9.36812 11.5584 8.66669 11.2678 8.14951 10.7506C7.63234 10.2335 7.3418 9.53204 7.3418 8.80065C7.3418 8.06926 7.63234 7.36782 8.14951 6.85065L11.8025 3.19765C12.9884 2.01484 14.535 1.26137 16.1973 1.05652C17.8597 0.851666 19.5429 1.20713 20.9805 2.06665L21.5915 2.43065C22.145 2.76474 22.8032 2.88061 23.4375 2.75565L25.6995 2.30065" stroke="#909090" stroke-width="1.5" stroke-linecap="round" stroke-linejoin="round"/>
<path d="M25.7 1L27 15.3H24.4M2.3 1L1 15.3L9.45 23.75C9.96717 24.2672 10.6686 24.5577 11.4 24.5577C12.1314 24.5577 12.8328 24.2672 13.35 23.75C13.8672 23.2328 14.1577 22.5314 14.1577 21.8C14.1577 21.0686 13.8672 20.3672 13.35 19.85M2.3 2.3H12.7" stroke="#909090" stroke-width="1.5" stroke-linecap="round" stroke-linejoin="round"/>
</svg>
