<svg width="26" height="26" viewBox="0 0 26 26" fill="none" xmlns="http://www.w3.org/2000/svg">
<path d="M17 24.9996V14.8941C17 14.559 16.8595 14.2377 16.6095 14.0008C16.3594 13.7639 16.0203 13.6309 15.6667 13.6309H10.3333C9.97971 13.6309 9.64057 13.7639 9.39052 14.0008C9.14048 14.2377 9 14.559 9 14.8941V24.9996" stroke="#909090" stroke-width="1.5" stroke-linecap="round" stroke-linejoin="round"/>
<path d="M1 11.1049C0.999907 10.7374 1.08445 10.3743 1.24772 10.0409C1.41099 9.70755 1.64906 9.41195 1.94533 9.17472L11.2787 1.59683C11.76 1.21144 12.3698 1 13 1C13.6302 1 14.24 1.21144 14.7213 1.59683L24.0547 9.17472C24.3509 9.41195 24.589 9.70755 24.7523 10.0409C24.9156 10.3743 25.0001 10.7374 25 11.1049V22.4736C25 23.1437 24.719 23.7862 24.219 24.26C23.7189 24.7338 23.0406 25 22.3333 25H3.66667C2.95942 25 2.28115 24.7338 1.78105 24.26C1.28095 23.7862 1 23.1437 1 22.4736V11.1049Z" stroke="#909090" stroke-width="1.5" stroke-linecap="round" stroke-linejoin="round"/>
</svg>
