<svg width="26" height="22" viewBox="0 0 26 22" fill="none" xmlns="http://www.w3.org/2000/svg">
<path d="M17.8 9.88826L20.2 12.1105L25 7.66602M17.8 20.9995V18.7772C17.8 17.5985 17.2943 16.468 16.3941 15.6345C15.4939 14.801 14.273 14.3328 13 14.3328H5.8C4.52696 14.3328 3.30606 14.801 2.40589 15.6345C1.50571 16.468 1 17.5985 1 18.7772V20.9995" stroke="black" stroke-width="2" stroke-linecap="round" stroke-linejoin="round"/>
<path d="M9.4001 9.88899C12.0511 9.88899 14.2001 7.89912 14.2001 5.44449C14.2001 2.98987 12.0511 1 9.4001 1C6.74913 1 4.6001 2.98987 4.6001 5.44449C4.6001 7.89912 6.74913 9.88899 9.4001 9.88899Z" stroke="black" stroke-width="2" stroke-linecap="round" stroke-linejoin="round"/>
</svg>
