<svg width="26" height="26" viewBox="0 0 26 26" fill="none" xmlns="http://www.w3.org/2000/svg">
<path d="M24.4485 16.5994H19.0005C18.364 16.5994 17.7536 16.8523 17.3035 17.3024C16.8534 17.7525 16.6005 18.3629 16.6005 18.9994V24.4474M7.00055 2.60742V4.59942C7.00055 5.5542 7.37983 6.46988 8.05496 7.14501C8.73009 7.82014 9.64577 8.19942 10.6005 8.19942C11.2371 8.19942 11.8475 8.45228 12.2976 8.90237C12.7477 9.35245 13.0005 9.9629 13.0005 10.5994C13.0005 11.9194 14.0805 12.9994 15.4005 12.9994C16.0371 12.9994 16.6475 12.7466 17.0976 12.2965C17.5477 11.8464 17.8005 11.2359 17.8005 10.5994C17.8005 9.27942 18.8805 8.19942 20.2005 8.19942H24.0045M11.8005 24.9394V20.1994C11.8005 19.5629 11.5477 18.9525 11.0976 18.5024C10.6475 18.0523 10.0371 17.7994 9.40055 17.7994C8.76403 17.7994 8.15358 17.5466 7.70349 17.0965C7.2534 16.6464 7.00055 16.0359 7.00055 15.3994V14.1994C7.00055 13.5629 6.74769 12.9525 6.2976 12.5024C5.84752 12.0523 5.23707 11.7994 4.60055 11.7994H1.06055" stroke="black" stroke-width="2" stroke-linecap="round" stroke-linejoin="round"/>
<path d="M13 25C19.6274 25 25 19.6274 25 13C25 6.37258 19.6274 1 13 1C6.37258 1 1 6.37258 1 13C1 19.6274 6.37258 25 13 25Z" stroke="black" stroke-width="2" stroke-linecap="round" stroke-linejoin="round"/>
</svg>
