<svg width="27" height="22" viewBox="0 0 27 22" fill="none" xmlns="http://www.w3.org/2000/svg">
<path d="M18.3 21.0007V18.7784C18.3 17.5997 17.7943 16.4692 16.8941 15.6357C15.9939 14.8022 14.773 14.334 13.5 14.334H6.3C5.02696 14.334 3.80606 14.8022 2.90589 15.6357C2.00571 16.4692 1.5 17.5997 1.5 18.7784V21.0007" stroke="black" stroke-width="2" stroke-linecap="round" stroke-linejoin="round"/>
<path d="M9.89961 9.88889C12.5506 9.88889 14.6996 7.89904 14.6996 5.44444C14.6996 2.98985 12.5506 1 9.89961 1C7.24864 1 5.09961 2.98985 5.09961 5.44444C5.09961 7.89904 7.24864 9.88889 9.89961 9.88889Z" stroke="black" stroke-width="2" stroke-linecap="round" stroke-linejoin="round"/>
<path d="M19.5 6.55469L25.5 12.1102M25.5 6.55469L19.5 12.1102" stroke="black" stroke-width="2" stroke-linecap="round" stroke-linejoin="round"/>
</svg>
