<svg width="26" height="26" viewBox="0 0 26 26" fill="none" xmlns="http://www.w3.org/2000/svg">
<path d="M20.2 10.6C20.2 8.05392 19.1886 5.61212 17.3882 3.81178C15.5879 2.01143 13.1461 1 10.6 1C8.05392 1 5.61212 2.01143 3.81178 3.81178C2.01143 5.61212 1 8.05392 1 10.6C1 16.5916 7.6468 22.8316 9.8788 24.7588C10.0868 24.9148 10.3399 24.9991 10.6 24.9988M20.2 25V21.4M16.6 25C16.2817 25 15.9765 24.8736 15.7515 24.6485C15.5264 24.4235 15.4 24.1183 15.4 23.8V19C15.4 18.8025 15.4487 18.608 15.5418 18.4339C15.635 18.2597 15.7697 18.1112 15.934 18.0016L19.534 15.6016C19.7312 15.47 19.9629 15.3998 20.2 15.3998C20.4371 15.3998 20.6688 15.47 20.866 15.6016L24.466 18.0016C24.6303 18.1112 24.765 18.2597 24.8582 18.4339C24.9513 18.608 25 18.8025 25 19V23.8C25 24.1183 24.8736 24.4235 24.6485 24.6485C24.4235 24.8736 24.1183 25 23.8 25H16.6Z" stroke="#909090" stroke-width="1.5" stroke-linecap="round" stroke-linejoin="round"/>
<path d="M10.6 14.2C12.5882 14.2 14.2 12.5882 14.2 10.6C14.2 8.61177 12.5882 7 10.6 7C8.61177 7 7 8.61177 7 10.6C7 12.5882 8.61177 14.2 10.6 14.2Z" stroke="#909090" stroke-width="1.5" stroke-linecap="round" stroke-linejoin="round"/>
</svg>
