<svg width="23" height="24" viewBox="0 0 23 24" fill="none" xmlns="http://www.w3.org/2000/svg">
<path d="M10.9589 0C11.2921 0.000376943 11.6126 0.130506 11.8549 0.363798C12.0972 0.59709 12.243 0.915937 12.2626 1.25519C12.2821 1.59445 12.1739 1.92851 11.96 2.18911C11.7461 2.44971 11.4427 2.6172 11.1119 2.65733L10.9589 2.66667H4.42208C4.10187 2.66671 3.7928 2.78661 3.55351 3.00362C3.31422 3.22063 3.16134 3.51967 3.12387 3.844L3.11472 4V20C3.11476 20.3266 3.23233 20.6418 3.44511 20.8858C3.6579 21.1299 3.95111 21.2858 4.26912 21.324L4.42208 21.3333H10.3052C10.6384 21.3337 10.9589 21.4638 11.2012 21.6971C11.4435 21.9304 11.5893 22.2493 11.6089 22.5885C11.6284 22.9278 11.5202 23.2618 11.3063 23.5224C11.0924 23.783 10.7891 23.9505 10.4582 23.9907L10.3052 24H4.42208C3.42168 24.0001 2.45906 23.6102 1.73119 22.9103C1.00333 22.2103 0.565228 21.2532 0.506537 20.2347L0.5 20V4C0.499944 2.97972 0.882175 1.99798 1.56849 1.25565C2.2548 0.513324 3.1933 0.0665233 4.19199 0.00666682L4.42208 0H10.9589ZM18.42 7.28533L22.1172 11.0573C22.3623 11.3074 22.5 11.6464 22.5 12C22.5 12.3536 22.3623 12.6926 22.1172 12.9427L18.42 16.7147C18.1747 16.9647 17.842 17.1051 17.4952 17.1049C17.1484 17.1048 16.8159 16.9642 16.5707 16.714C16.3256 16.4638 16.1879 16.1246 16.1881 15.7709C16.1882 15.4172 16.3261 15.078 16.5714 14.828L18.0369 13.3333H10.9589C10.6122 13.3333 10.2796 13.1929 10.0344 12.9428C9.78927 12.6928 9.65153 12.3536 9.65153 12C9.65153 11.6464 9.78927 11.3072 10.0344 11.0572C10.2796 10.8071 10.6122 10.6667 10.9589 10.6667H18.0369L16.5714 9.172C16.3261 8.92199 16.1882 8.58283 16.1881 8.22914C16.1879 7.87545 16.3256 7.53619 16.5707 7.286C16.8159 7.03581 17.1484 6.89519 17.4952 6.89506C17.842 6.89494 18.1747 7.03532 18.42 7.28533Z" fill="black"/>
</svg>
