<svg width="24" height="25" viewBox="0 0 24 25" fill="none" xmlns="http://www.w3.org/2000/svg">
<path d="M12 21.825C11.7667 21.825 11.5333 21.7833 11.3 21.7C11.0667 21.6167 10.8583 21.4917 10.675 21.325C9.59167 20.325 8.63333 19.35 7.8 18.4C6.96667 17.45 6.271 16.5293 5.713 15.638C5.155 14.7467 4.73 13.8883 4.438 13.063C4.146 12.2377 4 11.45 4 10.7C4 8.2 4.80433 6.20833 6.413 4.725C8.02167 3.24167 9.884 2.5 12 2.5C14.116 2.5 15.9787 3.24167 17.588 4.725C19.1973 6.20833 20.0013 8.2 20 10.7C20 11.45 19.8543 12.2377 19.563 13.063C19.2717 13.8883 18.8467 14.7467 18.288 15.638C17.7293 16.5293 17.0333 17.45 16.2 18.4C15.3667 19.35 14.4083 20.325 13.325 21.325C13.1417 21.4917 12.9333 21.6167 12.7 21.7C12.4667 21.7833 12.2333 21.825 12 21.825ZM12 12.5C12.55 12.5 13.021 12.3043 13.413 11.913C13.805 11.5217 14.0007 11.0507 14 10.5C13.9993 9.94933 13.8037 9.47867 13.413 9.088C13.0223 8.69733 12.5513 8.50133 12 8.5C11.4487 8.49867 10.978 8.69467 10.588 9.088C10.198 9.48133 10.002 9.952 10 10.5C9.998 11.048 10.194 11.519 10.588 11.913C10.982 12.307 11.4527 12.5027 12 12.5Z" fill="#8C8C8C"/>
</svg>
