<svg width="22" height="23" viewBox="0 0 22 23" fill="none" xmlns="http://www.w3.org/2000/svg">
<path fill-rule="evenodd" clip-rule="evenodd" d="M1.83398 11.5007C1.83398 6.4379 5.9379 2.33398 11.0007 2.33398C16.0634 2.33398 20.1673 6.4379 20.1673 11.5007C20.1673 16.5634 16.0634 20.6673 11.0007 20.6673C5.9379 20.6673 1.83398 16.5634 1.83398 11.5007ZM11.9173 6.91732C11.9173 6.6742 11.8207 6.44104 11.6488 6.26914C11.4769 6.09723 11.2438 6.00065 11.0007 6.00065C10.7575 6.00065 10.5244 6.09723 10.3525 6.26914C10.1806 6.44104 10.084 6.6742 10.084 6.91732V10.3677C10.084 10.8783 10.2262 11.3788 10.4946 11.8132C10.7631 12.2476 11.1471 12.5986 11.6038 12.8271L14.2576 14.1535C14.3656 14.2118 14.4843 14.2477 14.6065 14.2593C14.7287 14.2708 14.852 14.2577 14.9691 14.2207C15.0861 14.1836 15.1945 14.1235 15.2879 14.0438C15.3812 13.9641 15.4576 13.8664 15.5125 13.7566C15.5674 13.6468 15.5997 13.5271 15.6075 13.4046C15.6152 13.282 15.5983 13.1592 15.5577 13.0434C15.5171 12.9275 15.4536 12.821 15.371 12.7302C15.2885 12.6393 15.1885 12.566 15.0771 12.5145L12.4242 11.1872C12.272 11.1111 12.1439 10.9941 12.0544 10.8494C11.9649 10.7046 11.9174 10.5378 11.9173 10.3677V6.91732Z" fill="#8C8C8C"/>
</svg>
