<svg width="28" height="31" viewBox="0 0 28 31" fill="none" xmlns="http://www.w3.org/2000/svg">
<path d="M25.375 29.6C25.806 29.6 26.2193 29.4278 26.524 29.1213C26.8288 28.8148 27 28.3992 27 27.9657V25.9294C27.0065 21.3436 20.5422 17.7514 14 17.7514C7.45775 17.7514 1 21.3436 1 25.9294V27.9657C1 28.3992 1.17121 28.8148 1.47595 29.1213C1.7807 29.4278 2.19402 29.6 2.625 29.6H25.375ZM19.8565 6.88997C19.8565 7.66345 19.705 8.42935 19.4107 9.14396C19.1164 9.85856 18.685 10.5079 18.1412 11.0548C17.5973 11.6017 16.9517 12.0356 16.2412 12.3316C15.5306 12.6276 14.7691 12.7799 14 12.7799C13.2309 12.7799 12.4694 12.6276 11.7588 12.3316C11.0483 12.0356 10.4027 11.6017 9.85883 11.0548C9.315 10.5079 8.88361 9.85856 8.5893 9.14396C8.29498 8.42935 8.1435 7.66345 8.1435 6.88997C8.1435 5.32785 8.76052 3.82971 9.85883 2.72513C10.9571 1.62055 12.4468 1 14 1C15.5532 1 17.0429 1.62055 18.1412 2.72513C19.2395 3.82971 19.8565 5.32785 19.8565 6.88997Z" stroke="#909090" stroke-width="1.5" stroke-linecap="round" stroke-linejoin="round"/>
</svg>
