<svg width="26" height="26" viewBox="0 0 26 26" fill="none" xmlns="http://www.w3.org/2000/svg">
<path d="M15.9939 21.751L17.1186 21.2855M17.1186 18.4878L15.9939 18.0211M19.0975 16.5089L18.6308 15.3842M19.0975 23.2644L18.6308 24.3903M21.8952 16.5089L22.3619 15.3842M22.3607 24.3903L21.8952 23.2644M1 23.5422C1.00014 22.008 1.36238 20.4956 2.05726 19.1278C2.75214 17.76 3.76003 16.5756 4.99897 15.6708C6.23792 14.766 7.67292 14.1663 9.18729 13.9207C10.7017 13.675 12.2526 13.7903 13.7141 14.2571M23.8741 18.4878L25 18.0211M23.8741 21.2855L25 21.7522" stroke="#909090" stroke-width="1.5" stroke-linecap="round" stroke-linejoin="round"/>
<path d="M10.7489 13.7946C14.1137 13.7946 16.8415 11.0668 16.8415 7.70198C16.8415 4.33713 14.1137 1.60938 10.7489 1.60938C7.384 1.60938 4.65625 4.33713 4.65625 7.70198C4.65625 11.0668 7.384 13.7946 10.7489 13.7946Z" stroke="#909090" stroke-width="1.5" stroke-linecap="round" stroke-linejoin="round"/>
<path d="M20.4954 23.5436C22.5143 23.5436 24.151 21.9069 24.151 19.888C24.151 17.8691 22.5143 16.2324 20.4954 16.2324C18.4765 16.2324 16.8398 17.8691 16.8398 19.888C16.8398 21.9069 18.4765 23.5436 20.4954 23.5436Z" stroke="#909090" stroke-width="1.5" stroke-linecap="round" stroke-linejoin="round"/>
</svg>
