<svg width="25" height="24" viewBox="0 0 25 24" fill="none" xmlns="http://www.w3.org/2000/svg">
<path d="M1.67261 17.965C1.24207 18.3767 1.00013 18.9351 1 19.5175V21.9021C1 22.1933 1.12093 22.4725 1.33618 22.6784C1.55144 22.8843 1.84339 23 2.14781 23H5.59122C5.89564 23 6.18759 22.8843 6.40284 22.6784C6.6181 22.4725 6.73903 22.1933 6.73903 21.9021V20.8042C6.73903 20.513 6.85995 20.2338 7.07521 20.0279C7.29047 19.822 7.58241 19.7063 7.88683 19.7063H9.03464C9.33905 19.7063 9.631 19.5906 9.84626 19.3847C10.0615 19.1788 10.1824 18.8996 10.1824 18.6084V17.5105C10.1824 17.2193 10.3034 16.9401 10.5186 16.7342C10.7339 16.5283 11.0258 16.4126 11.3302 16.4126H11.5277C12.1365 16.4125 12.7203 16.181 13.1507 15.7692L14.085 14.8755C15.6802 15.4071 17.4169 15.405 19.0108 14.8698C20.6047 14.3345 21.9615 13.2977 22.8592 11.9289C23.757 10.5601 24.1425 8.94048 23.9528 7.33487C23.7631 5.72926 23.0093 4.23277 21.8148 3.0902C20.6203 1.94764 19.0558 1.22664 17.3772 1.04516C15.6986 0.863686 14.0053 1.23247 12.5743 2.09119C11.1433 2.94991 10.0594 4.24772 9.49978 5.77232C8.94018 7.29691 8.93805 8.95803 9.49376 10.4839L1.67261 17.965Z" stroke="black" stroke-width="2" stroke-linecap="round" stroke-linejoin="round"/>
<path d="M15.5 9.01855C15.7761 9.01855 16 8.7947 16 8.51855C16 8.24241 15.7761 8.01855 15.5 8.01855C15.2239 8.01855 15 8.24241 15 8.51855C15 8.7947 15.2239 9.01855 15.5 9.01855Z" fill="black" stroke="black" stroke-width="2" stroke-linecap="round" stroke-linejoin="round"/>
</svg>
