<svg width="28" height="26" viewBox="0 0 28 26" fill="none" xmlns="http://www.w3.org/2000/svg">
<path d="M11.5605 16.9992H6.28026C4.87985 16.9992 3.53679 17.5611 2.54655 18.5613C1.55631 19.5616 1 20.9182 1 22.3328V24.9996M17.2434 19.0393L18.4618 18.5299M18.4618 15.4684L17.2434 14.9577M20.6056 13.303L20.1 12.0723M20.6056 20.6954L20.1 21.9274M23.6365 13.303L24.1421 12.0723M24.1407 21.9274L23.6365 20.6954M25.7803 15.4684L27 14.9577M25.7803 18.5299L27 19.0406" stroke="black" stroke-width="2" stroke-linecap="round" stroke-linejoin="round"/>
<path d="M22.1223 21.0004C24.3095 21.0004 26.0825 19.2094 26.0825 17.0002C26.0825 14.7909 24.3095 13 22.1223 13C19.9351 13 18.1621 14.7909 18.1621 17.0002C18.1621 19.2094 19.9351 21.0004 22.1223 21.0004Z" stroke="black" stroke-width="2" stroke-linecap="round" stroke-linejoin="round"/>
<path d="M10.2412 11.6672C13.1574 11.6672 15.5215 9.27926 15.5215 6.33359C15.5215 3.38793 13.1574 1 10.2412 1C7.32499 1 4.96094 3.38793 4.96094 6.33359C4.96094 9.27926 7.32499 11.6672 10.2412 11.6672Z" stroke="black" stroke-width="2" stroke-linecap="round" stroke-linejoin="round"/>
</svg>
