<svg width="24" height="13" viewBox="0 0 24 13" fill="none" xmlns="http://www.w3.org/2000/svg">
<path d="M0.528277 12.5029C0.866635 12.8212 1.32548 13 1.80392 13C2.28236 13 2.74121 12.8212 3.07957 12.5029L12.0109 4.09834L20.9422 12.5029C21.2825 12.8122 21.7383 12.9833 22.2114 12.9794C22.6845 12.9756 23.137 12.797 23.4715 12.4822C23.8061 12.1674 23.9958 11.7415 23.9999 11.2964C24.004 10.8512 23.8222 10.4223 23.4935 10.1021L13.2865 0.497118C12.9482 0.178814 12.4893 -3.9664e-07 12.0109 -3.9664e-07C11.5325 -3.9664e-07 11.0736 0.178814 10.7352 0.497118L0.528277 10.1021C0.190021 10.4205 0 10.8523 0 11.3025C0 11.7527 0.190021 12.1845 0.528277 12.5029Z" fill="#8C8C8C"/>
</svg>
