<svg width="36" height="36" viewBox="0 0 36 36" fill="none" xmlns="http://www.w3.org/2000/svg">
<path d="M33 16.5V5.4C33 5.16131 32.9052 4.93239 32.7364 4.7636C32.5676 4.59482 32.3387 4.5 32.1 4.5H3.9C3.66131 4.5 3.43239 4.59482 3.2636 4.7636C3.09482 4.93239 3 5.16131 3 5.4V16.5M33 16.5H3M33 16.5L31.815 20.376C31.6274 20.9905 31.2475 21.5285 30.7312 21.9109C30.2149 22.2932 29.5895 22.4997 28.947 22.5H27M3 16.5L4.185 20.376C4.3726 20.9905 4.75251 21.5285 5.26881 21.9109C5.78511 22.2932 6.41053 22.4997 7.053 22.5H9M27 10.5H28.5M14.25 21.75C14.25 21.75 14.25 32.25 9 32.25M21.75 21.75C21.75 21.75 21.75 32.25 27 32.25M18 21.75V32.25" stroke="black" stroke-width="1.5" stroke-linecap="round" stroke-linejoin="round"/>
</svg>
