<svg width="36" height="36" viewBox="0 0 36 36" fill="none" xmlns="http://www.w3.org/2000/svg">
<path d="M33 4.5H3M7.5 21C8.397 19.9395 10.1505 17.091 10.5 13.5M28.5 21C27.6015 19.9395 25.8495 17.091 25.5 13.5M4.5 4.5V21.9375M4.5 21.9375V25.125C4.5 28.1295 4.5 29.6325 5.379 30.567C6.258 31.5 7.671 31.5 10.5 31.5H12C12 29.2965 11.4 24.117 9 21.0225M4.5 21.9375C6.222 21.822 7.7115 21.5025 9 21.0225M9 21.0225C14.82 18.8625 18 10.8225 18 4.5C18 10.8225 21.18 18.8625 27 21.0225M31.5 4.5V21.9375M31.5 21.9375V25.125C31.5 28.1295 31.5 29.6325 30.621 30.567C29.742 31.5 28.329 31.5 25.5 31.5H24C24 29.2965 24.6 24.117 27 21.0225M31.5 21.9375C29.778 21.822 28.2885 21.5025 27 21.0225" stroke="black" stroke-width="1.5" stroke-linecap="round" stroke-linejoin="round"/>
</svg>
