<svg width="36" height="36" viewBox="0 0 36 36" fill="none" xmlns="http://www.w3.org/2000/svg">
<path d="M24 25.5C27.5355 25.5 29.3025 25.5 30.402 24.402C31.5 23.304 31.5 21.5355 31.5 18V12H4.5V18C4.5 21.5355 4.5 23.304 5.598 24.402C6.696 25.5 8.4645 25.5 12 25.5M24 25.5H12M24 25.5V30M12 25.5V30M7.5 25.5V33M28.5 25.5V33M3 12H5.727M30.273 12H33M10.5 9C10.5 6.171 10.5 4.758 11.379 3.879C12.258 3 13.671 3 16.5 3H19.5C22.329 3 23.742 3 24.621 3.879C25.5 4.758 25.5 6.171 25.5 9V12H10.5V9Z" stroke="black" stroke-width="1.5" stroke-linecap="round"/>
</svg>
