<svg width="36" height="36" viewBox="0 0 36 36" fill="none" xmlns="http://www.w3.org/2000/svg">
<path d="M16 28.75C20.4183 28.75 24 25.1683 24 20.75C24 16.3317 20.4183 12.75 16 12.75C11.5817 12.75 8 16.3317 8 20.75C8 25.1683 11.5817 28.75 16 28.75Z" stroke="#FF4C61" stroke-width="1.5"/>
<path d="M28.03 8.75H28.78C28.78 8.55109 28.701 8.36032 28.5603 8.21967C28.4197 8.07902 28.2289 8 28.03 8V8.75ZM27.28 13.75C27.28 13.9489 27.359 14.1397 27.4997 14.2803C27.6403 14.421 27.8311 14.5 28.03 14.5C28.2289 14.5 28.4197 14.421 28.5603 14.2803C28.701 14.1397 28.78 13.9489 28.78 13.75H27.28ZM23.03 8C22.8311 8 22.6403 8.07902 22.4997 8.21967C22.359 8.36032 22.28 8.55109 22.28 8.75C22.28 8.94891 22.359 9.13968 22.4997 9.28033C22.6403 9.42098 22.8311 9.5 23.03 9.5V8ZM22.06 15.78L28.56 9.28L27.5 8.22L21 14.72L22.06 15.78ZM27.28 8.75V13.75H28.78V8.75H27.28ZM23.03 9.5H28.03V8H23.03V9.5Z" fill="#FF4C61"/>
</svg>
