<svg width="36" height="36" viewBox="0 0 36 36" fill="none" xmlns="http://www.w3.org/2000/svg">
<path d="M11.338 7.00002C10.4644 7.00002 9.693 7.61322 9.532 8.49522C9.3248 9.64042 9 11.6788 9 13.3C9 15.0234 9.8904 16.5382 11.233 17.4104C11.6124 17.6582 11.8 17.9774 11.8 18.2504V18.8244C11.8 18.8496 11.7986 18.8748 11.7958 18.9C11.758 19.264 11.5844 20.9006 11.4206 22.5834C11.2596 24.2424 11.1 26.0134 11.1 26.6C11.1 27.3426 11.395 28.0548 11.9201 28.5799C12.4452 29.105 13.1574 29.4 13.9 29.4C14.6426 29.4 15.3548 29.105 15.8799 28.5799C16.405 28.0548 16.7 27.3426 16.7 26.6C16.7 26.012 16.5404 24.2424 16.3794 22.5834C16.2597 21.3555 16.1346 20.1282 16.0042 18.9014L16 18.8244V18.2504C16 17.976 16.1876 17.6568 16.567 17.4104C17.2524 16.9658 17.8157 16.3568 18.2057 15.6389C18.5957 14.921 18.8 14.117 18.8 13.3C18.8 11.6788 18.4752 9.64042 18.268 8.49522C18.1902 8.07374 17.9666 7.69304 17.6365 7.41971C17.3063 7.14638 16.8906 6.99782 16.462 7.00002C15.986 7.00002 15.552 7.17782 15.2244 7.47042C14.8501 7.16616 14.3824 7.00006 13.9 7.00002C13.3974 7.00002 12.9368 7.17642 12.5756 7.47042C12.2357 7.16648 11.794 6.99894 11.338 7.00002ZM13.2 9.10002C13.2 8.91437 13.2737 8.73632 13.405 8.60505C13.5363 8.47377 13.7143 8.40002 13.9 8.40002C14.0857 8.40002 14.2637 8.47377 14.395 8.60505C14.5262 8.73632 14.6 8.91437 14.6 9.10002V13.3C14.6 13.4857 14.6737 13.6637 14.805 13.795C14.9363 13.9263 15.1143 14 15.3 14C15.4857 14 15.6637 13.9263 15.795 13.795C15.9262 13.6637 16 13.4857 16 13.3V8.86202C16 8.80135 16.012 8.74128 16.0352 8.68522C16.0584 8.62917 16.0924 8.57824 16.1353 8.53534C16.1782 8.49244 16.2291 8.45841 16.2852 8.43519C16.3413 8.41197 16.4013 8.40002 16.462 8.40002C16.6818 8.40002 16.854 8.55122 16.8904 8.74582C17.0962 9.88402 17.4 11.8146 17.4 13.3C17.4001 13.8839 17.2541 14.4585 16.9753 14.9715C16.6966 15.4845 16.2939 15.9196 15.804 16.2372C15.1894 16.6362 14.6 17.3376 14.6 18.2504V18.8244C14.6 18.8991 14.6037 18.9738 14.6112 19.0484C14.6504 19.4096 14.8226 21.042 14.9864 22.7192C15.1516 24.4202 15.3 26.1002 15.3 26.6C15.3 26.9713 15.1525 27.3274 14.8899 27.59C14.6274 27.8525 14.2713 28 13.9 28C13.5287 28 13.1726 27.8525 12.9101 27.59C12.6475 27.3274 12.5 26.9713 12.5 26.6C12.5 26.1002 12.6484 24.4202 12.8136 22.7192C12.9774 21.042 13.1496 19.4096 13.1888 19.0484C13.1963 18.9738 13.2 18.8991 13.2 18.8244V18.2504C13.2 17.3376 12.6106 16.6362 11.996 16.2372C11.5061 15.9196 11.1034 15.4845 10.8247 14.9715C10.5459 14.4585 10.3999 13.8839 10.4 13.3C10.4 11.816 10.7038 9.88402 10.9096 8.74582C10.9288 8.64667 10.9825 8.55751 11.0612 8.4942C11.1399 8.43089 11.2384 8.39752 11.3394 8.40002C11.4617 8.40039 11.5788 8.44923 11.6652 8.53583C11.7515 8.62244 11.8 8.73974 11.8 8.86202V13.3C11.8 13.4857 11.8737 13.6637 12.005 13.795C12.1363 13.9263 12.3143 14 12.5 14C12.6857 14 12.8637 13.9263 12.995 13.795C13.1262 13.6637 13.2 13.4857 13.2 13.3V9.10002ZM20.2 13.3C20.2 11.6292 20.8637 10.0267 22.0452 8.84525C23.2267 7.66377 24.8291 7.00002 26.5 7.00002C26.6857 7.00002 26.8637 7.07377 26.995 7.20505C27.1263 7.33632 27.2 7.51437 27.2 7.70002V17.4692L27.228 17.7828C27.3371 19.0407 27.4435 20.2989 27.5472 21.5572C27.7208 23.667 27.9 25.9826 27.9 26.6C27.9 27.3426 27.605 28.0548 27.0799 28.5799C26.5548 29.105 25.8426 29.4 25.1 29.4C24.3574 29.4 23.6452 29.105 23.1201 28.5799C22.595 28.0548 22.3 27.3426 22.3 26.6C22.3 25.984 22.4792 23.667 22.6528 21.5572C22.7396 20.4918 22.8278 19.4614 22.8936 18.6984L22.9356 18.2H22.3C21.743 18.2 21.2089 17.9788 20.8151 17.5849C20.4212 17.1911 20.2 16.657 20.2 16.1V13.3ZM24.3972 17.5616L24.3678 17.9046L24.288 18.8188C24.2222 19.5804 24.134 20.608 24.0472 21.672C23.8708 23.8238 23.7 26.0568 23.7 26.6C23.7 26.9713 23.8475 27.3274 24.1101 27.59C24.3726 27.8525 24.7287 28 25.1 28C25.4713 28 25.8274 27.8525 26.0899 27.59C26.3525 27.3274 26.5 26.9713 26.5 26.6C26.5 26.0568 26.3292 23.8238 26.1528 21.672C26.0489 20.416 25.9421 19.1602 25.8322 17.9046L25.8028 17.563V17.5616L25.8 17.5V8.44902C24.6336 8.61738 23.5669 9.20048 22.7955 10.0914C22.0241 10.9824 21.5997 12.1215 21.6 13.3V16.1C21.6 16.2857 21.6737 16.4637 21.805 16.595C21.9363 16.7263 22.1143 16.8 22.3 16.8H23.7C23.7971 16.8 23.8932 16.8203 23.982 16.8594C24.0709 16.8985 24.1507 16.9557 24.2162 17.0274C24.2818 17.099 24.3318 17.1835 24.3629 17.2755C24.3941 17.3674 24.4057 17.4649 24.3972 17.5616Z" fill="#FF4C61"/>
</svg>
