<svg width="36" height="36" viewBox="0 0 36 36" fill="none" xmlns="http://www.w3.org/2000/svg">
<path d="M33.428 6.42773H2.57087C2.22988 6.42773 1.90285 6.56319 1.66173 6.80431C1.42061 7.04543 1.28516 7.37246 1.28516 7.71345V28.2849C1.28516 28.6259 1.42061 28.9529 1.66173 29.194C1.90285 29.4351 2.22988 29.5706 2.57087 29.5706H33.428C33.769 29.5706 34.096 29.4351 34.3372 29.194C34.5783 28.9529 34.7137 28.6259 34.7137 28.2849V7.71345C34.7137 7.37246 34.5783 7.04543 34.3372 6.80431C34.096 6.56319 33.769 6.42773 33.428 6.42773Z" stroke="black" stroke-width="1.5" stroke-linecap="round" stroke-linejoin="round"/>
<path d="M28.2849 12.856H29.5706M28.2849 17.9989H29.5706M21.8563 11.5703H7.71345C7.37246 11.5703 7.04543 11.7058 6.80431 11.9469C6.56319 12.188 6.42773 12.515 6.42773 12.856V23.1417C6.42773 23.4827 6.56319 23.8098 6.80431 24.0509C7.04543 24.292 7.37246 24.4275 7.71345 24.4275H21.8563C22.1973 24.4275 22.5243 24.292 22.7654 24.0509C23.0066 23.8098 23.142 23.4827 23.142 23.1417V12.856C23.142 12.515 23.0066 12.188 22.7654 11.9469C22.5243 11.7058 22.1973 11.5703 21.8563 11.5703Z" stroke="black" stroke-width="1.5" stroke-linecap="round" stroke-linejoin="round"/>
</svg>
