<svg xmlns="http://www.w3.org/2000/svg" width="19" height="18" viewBox="0 0 19 18" fill="none">
  <path d="M7.66244 13.9329L10.5332 16.603C10.7093 16.7717 10.9295 16.8945 11.1721 16.9592C11.4146 17.024 11.671 17.0285 11.9159 16.9722C12.1624 16.9186 12.3899 16.8068 12.5767 16.6473C12.7635 16.4878 12.9033 16.2861 12.9825 16.0616L17.6969 2.85825C17.7953 2.61086 17.8156 2.34228 17.7554 2.08442C17.6952 1.82655 17.557 1.59028 17.3573 1.40366C17.1576 1.21703 16.9047 1.08792 16.6288 1.03167C16.3528 0.975416 16.0654 0.994385 15.8007 1.08632L1.67073 5.49154C1.42217 5.57087 1.20079 5.71079 1.02948 5.89683C0.858164 6.08287 0.743124 6.30829 0.69625 6.54978C0.647868 6.76941 0.658638 6.99684 0.727594 7.21162C0.79655 7.4264 0.921531 7.62181 1.09131 7.78028L4.6995 11.1519L4.58098 15.4218L7.66244 13.9329Z" stroke="#FF4C61" stroke-width="1.23164" stroke-linecap="round" stroke-linejoin="round"/>
  <path d="M17.2758 1.35742L4.69971 11.1523" stroke="#FF4C61" stroke-width="1.23164" stroke-linecap="round" stroke-linejoin="round"/>
</svg>