<svg width="36" height="36" viewBox="0 0 36 36" fill="none" xmlns="http://www.w3.org/2000/svg">
<path d="M17.25 28.5V16.5H10.644C10.24 16.5 9.91247 16.3335 9.66147 16.0005C9.40947 15.6675 9.34847 15.309 9.47847 14.925L11.7405 7.695C11.9025 7.186 12.1925 6.776 12.6105 6.465C13.0305 6.155 13.5075 6 14.0415 6H21.9585C22.4925 6 22.969 6.155 23.388 6.465C23.808 6.776 24.0985 7.186 24.2595 7.695L26.5215 14.925C26.6515 15.31 26.5905 15.6685 26.3385 16.0005C26.0875 16.3335 25.76 16.5 25.356 16.5H18.75V28.5H17.25ZM11.025 15H24.975L22.8525 8.163C22.7945 7.971 22.684 7.8125 22.521 7.6875C22.358 7.5625 22.1705 7.5 21.9585 7.5H14.043C13.831 7.5 13.643 7.5625 13.479 7.6875C13.315 7.8125 13.205 7.971 13.149 8.163L11.025 15ZM12.75 31.5V30H23.25V31.5H12.75Z" fill="black"/>
</svg>
