<svg width="37" height="36" viewBox="0 0 37 36" fill="none" xmlns="http://www.w3.org/2000/svg">
<path d="M4.47552 6.81055C2.01399 6.81055 0 8.82453 0 11.2861V22.0273C0.00101668 23.0607 0.299624 24.0719 0.860119 24.94C1.42061 25.8081 2.21928 26.4964 3.16062 26.9227L0.895105 29.1882H2.99323L4.81119 27.3702C4.99021 27.3881 5.18534 27.398 5.37063 27.398H14.3217C14.507 27.398 14.703 27.3872 14.8811 27.3702L16.6991 29.1882H18.7972L16.5317 26.9227C17.473 26.4964 18.2717 25.8081 18.8322 24.94C19.3927 24.0719 19.6913 23.0607 19.6923 22.0273V11.2861C19.6923 8.82453 17.6783 6.81055 15.2168 6.81055H4.47552ZM4.47552 8.60076H15.2168C16.3983 8.60076 17.3991 9.3419 17.7625 10.391H1.92985C2.11459 9.86443 2.45929 9.4088 2.91573 9.08781C3.37217 8.76683 3.91753 8.59653 4.47552 8.60076ZM1.79021 12.1812H8.95105V17.5518H1.79021V12.1812ZM10.7413 12.1812H17.9021V17.5518H10.7413V12.1812ZM1.79021 19.342H17.9021V22.0273C17.9021 24.0136 16.3079 25.6077 14.3217 25.6077H5.37063C3.38439 25.6077 1.79021 24.0136 1.79021 22.0273V19.342ZM4.92308 21.1322C4.56698 21.1322 4.22547 21.2737 3.97367 21.5255C3.72188 21.7773 3.58042 22.1188 3.58042 22.4749C3.58042 22.831 3.72188 23.1725 3.97367 23.4243C4.22547 23.6761 4.56698 23.8175 4.92308 23.8175C5.27917 23.8175 5.62068 23.6761 5.87248 23.4243C6.12428 23.1725 6.26573 22.831 6.26573 22.4749C6.26573 22.1188 6.12428 21.7773 5.87248 21.5255C5.62068 21.2737 5.27917 21.1322 4.92308 21.1322ZM14.7692 21.1322C14.4131 21.1322 14.0716 21.2737 13.8198 21.5255C13.568 21.7773 13.4266 22.1188 13.4266 22.4749C13.4266 22.831 13.568 23.1725 13.8198 23.4243C14.0716 23.6761 14.4131 23.8175 14.7692 23.8175C15.1253 23.8175 15.4668 23.6761 15.7186 23.4243C15.9704 23.1725 16.1119 22.831 16.1119 22.4749C16.1119 22.1188 15.9704 21.7773 15.7186 21.5255C15.4668 21.2737 15.1253 21.1322 14.7692 21.1322Z" fill="#FF4C61"/>
<path d="M21.2676 16.4246C21.2676 13.4542 21.2676 11.9686 22.1908 11.0462C23.1139 10.1238 24.5987 10.123 27.5691 10.123C30.5395 10.123 32.0251 10.123 32.9475 11.0462C33.8699 11.9694 33.8707 13.4542 33.8707 16.4246V18C33.8707 20.9704 33.8707 22.4559 32.9475 23.3783C32.0243 24.3007 30.5395 24.3015 27.5691 24.3015C24.5987 24.3015 23.1131 24.3015 22.1908 23.3783C21.2684 22.4552 21.2676 20.9704 21.2676 18V16.4246Z" stroke="#FF4C61" stroke-width="1.18154"/>
<path d="M30.3253 21.1506H31.5068M23.6299 21.1506H24.8114M22.8422 23.9075V25.089C22.8422 25.2979 22.9252 25.4983 23.0729 25.646C23.2206 25.7937 23.421 25.8767 23.6299 25.8767H24.8114C25.0203 25.8767 25.2207 25.7937 25.3684 25.646C25.5161 25.4983 25.5991 25.2979 25.5991 25.089V24.3013M32.2945 23.9075V25.089C32.2945 25.2979 32.2115 25.4983 32.0638 25.646C31.9161 25.7937 31.7157 25.8767 31.5068 25.8767H30.3253C30.1163 25.8767 29.916 25.7937 29.7683 25.646C29.6205 25.4983 29.5376 25.2979 29.5376 25.089V24.3013M33.8699 15.6367H34.6576C34.8665 15.6367 35.0668 15.7197 35.2145 15.8674C35.3623 16.0151 35.4453 16.2155 35.4453 16.4244V17.2121C35.4453 17.3344 35.4168 17.455 35.3621 17.5644C35.3074 17.6737 35.228 17.7689 35.1302 17.8423L33.8699 18.7875H21.2668L20.0065 17.8423C19.9087 17.7689 19.8293 17.6737 19.7746 17.5644C19.7199 17.455 19.6914 17.3344 19.6914 17.2121V16.4244C19.6914 16.2155 19.7744 16.0151 19.9221 15.8674C20.0698 15.7197 20.2702 15.6367 20.4791 15.6367H21.2668" stroke="#FF4C61" stroke-width="1.18154" stroke-linecap="round" stroke-linejoin="round"/>
<path d="M33.4755 12.4863H21.6602" stroke="#FF4C61" stroke-width="1.18154" stroke-linecap="round"/>
</svg>
