<svg width="37" height="24" viewBox="0 0 37 24" fill="none" xmlns="http://www.w3.org/2000/svg">
<path d="M4.47552 0.810547C2.01399 0.810547 0 2.82453 0 5.28607V16.0273C0.00101668 17.0607 0.299624 18.0719 0.860119 18.94C1.42061 19.8081 2.21928 20.4964 3.16062 20.9227L0.895105 23.1882H2.99323L4.81119 21.3702C4.99021 21.3881 5.18534 21.398 5.37063 21.398H14.3217C14.507 21.398 14.703 21.3872 14.8811 21.3702L16.6991 23.1882H18.7972L16.5317 20.9227C17.473 20.4964 18.2717 19.8081 18.8322 18.94C19.3927 18.0719 19.6913 17.0607 19.6923 16.0273V5.28607C19.6923 2.82453 17.6783 0.810547 15.2168 0.810547H4.47552ZM4.47552 2.60076H15.2168C16.3983 2.60076 17.3991 3.3419 17.7625 4.39097H1.92985C2.11459 3.86443 2.45929 3.4088 2.91573 3.08781C3.37217 2.76683 3.91753 2.59653 4.47552 2.60076ZM1.79021 6.18118H8.95105V11.5518H1.79021V6.18118ZM10.7413 6.18118H17.9021V11.5518H10.7413V6.18118ZM1.79021 13.342H17.9021V16.0273C17.9021 18.0136 16.3079 19.6077 14.3217 19.6077H5.37063C3.38439 19.6077 1.79021 18.0136 1.79021 16.0273V13.342ZM4.92308 15.1322C4.56698 15.1322 4.22547 15.2737 3.97367 15.5255C3.72188 15.7773 3.58042 16.1188 3.58042 16.4749C3.58042 16.831 3.72188 17.1725 3.97367 17.4243C4.22547 17.6761 4.56698 17.8175 4.92308 17.8175C5.27917 17.8175 5.62068 17.6761 5.87248 17.4243C6.12428 17.1725 6.26573 16.831 6.26573 16.4749C6.26573 16.1188 6.12428 15.7773 5.87248 15.5255C5.62068 15.2737 5.27917 15.1322 4.92308 15.1322ZM14.7692 15.1322C14.4131 15.1322 14.0716 15.2737 13.8198 15.5255C13.568 15.7773 13.4266 16.1188 13.4266 16.4749C13.4266 16.831 13.568 17.1725 13.8198 17.4243C14.0716 17.6761 14.4131 17.8175 14.7692 17.8175C15.1253 17.8175 15.4668 17.6761 15.7186 17.4243C15.9704 17.1725 16.1119 16.831 16.1119 16.4749C16.1119 16.1188 15.9704 15.7773 15.7186 15.5255C15.4668 15.2737 15.1253 15.1322 14.7692 15.1322Z" fill="#FF4C61"/>
<path d="M21.2676 10.4246C21.2676 7.4542 21.2676 5.96861 22.1908 5.04622C23.1139 4.12383 24.5987 4.12305 27.5691 4.12305C30.5395 4.12305 32.0251 4.12305 32.9475 5.04622C33.8699 5.9694 33.8707 7.4542 33.8707 10.4246V12C33.8707 14.9704 33.8707 16.4559 32.9475 17.3783C32.0243 18.3007 30.5395 18.3015 27.5691 18.3015C24.5987 18.3015 23.1131 18.3015 22.1908 17.3783C21.2684 16.4552 21.2676 14.9704 21.2676 12V10.4246Z" stroke="#FF4C61" stroke-width="1.18154"/>
<path d="M30.3253 15.1506H31.5068M23.6299 15.1506H24.8114M22.8422 17.9075V19.089C22.8422 19.2979 22.9252 19.4983 23.0729 19.646C23.2206 19.7937 23.421 19.8767 23.6299 19.8767H24.8114C25.0203 19.8767 25.2207 19.7937 25.3684 19.646C25.5161 19.4983 25.5991 19.2979 25.5991 19.089V18.3013M32.2945 17.9075V19.089C32.2945 19.2979 32.2115 19.4983 32.0638 19.646C31.9161 19.7937 31.7157 19.8767 31.5068 19.8767H30.3253C30.1163 19.8767 29.916 19.7937 29.7683 19.646C29.6205 19.4983 29.5376 19.2979 29.5376 19.089V18.3013M33.8699 9.63672H34.6576C34.8665 9.63672 35.0668 9.71971 35.2145 9.86743C35.3623 10.0151 35.4453 10.2155 35.4453 10.4244V11.2121C35.4453 11.3344 35.4168 11.455 35.3621 11.5644C35.3074 11.6737 35.228 11.7689 35.1302 11.8423L33.8699 12.7875H21.2668L20.0065 11.8423C19.9087 11.7689 19.8293 11.6737 19.7746 11.5644C19.7199 11.455 19.6914 11.3344 19.6914 11.2121V10.4244C19.6914 10.2155 19.7744 10.0151 19.9221 9.86743C20.0698 9.71971 20.2702 9.63672 20.4791 9.63672H21.2668" stroke="#FF4C61" stroke-width="1.18154" stroke-linecap="round" stroke-linejoin="round"/>
<path d="M33.4755 6.48633H21.6602" stroke="#FF4C61" stroke-width="1.18154" stroke-linecap="round"/>
</svg>
