<svg width="36" height="36" viewBox="0 0 36 36" fill="none" xmlns="http://www.w3.org/2000/svg">
<path d="M10.5005 18H30.0005C30.3983 18 30.7799 18.158 31.0612 18.4393C31.3425 18.7206 31.5005 19.1022 31.5005 19.5C31.5005 21.4891 30.7103 23.3968 29.3038 24.8033C27.8973 26.2098 25.9896 27 24.0005 27H23.1035C22.9696 27 22.8382 27.0358 22.7228 27.1038C22.6075 27.1717 22.5124 27.2693 22.4475 27.3864C22.3826 27.5035 22.3503 27.6359 22.3538 27.7697C22.3573 27.9035 22.3966 28.034 22.4675 28.1475L24.7835 31.8525C24.8545 31.966 24.8937 32.0965 24.8973 32.2303C24.9008 32.3641 24.8684 32.4965 24.8035 32.6136C24.7386 32.7307 24.6435 32.8283 24.5282 32.8962C24.4128 32.9642 24.2814 33 24.1475 33H8.10352C7.96964 33 7.8382 32.9642 7.72285 32.8962C7.6075 32.8283 7.51243 32.7307 7.44753 32.6136C7.38263 32.4965 7.35026 32.3641 7.35377 32.2303C7.35729 32.0965 7.39656 31.966 7.46752 31.8525L10.5005 27" stroke="black" stroke-width="1.5" stroke-linecap="round" stroke-linejoin="round"/>
<path d="M12 27C10.0109 27 8.10322 26.2098 6.6967 24.8033C5.29018 23.3968 4.5 21.4891 4.5 19.5V6C4.5 5.20435 4.81607 4.44129 5.37868 3.87868C5.94129 3.31607 6.70435 3 7.5 3H19.5C20.2956 3 21.0587 3.31607 21.6213 3.87868C22.1839 4.44129 22.5 5.20435 22.5 6V18" stroke="black" stroke-width="1.5" stroke-linecap="round" stroke-linejoin="round"/>
</svg>
