<svg width="36" height="36" viewBox="0 0 36 36" fill="none" xmlns="http://www.w3.org/2000/svg">
<path fill-rule="evenodd" clip-rule="evenodd" d="M4.8 7.8V26.7H31.2V7.8H4.8ZM3 7.5C3 7.10218 3.15804 6.72064 3.43934 6.43934C3.72064 6.15804 4.10218 6 4.5 6H31.5C31.8978 6 32.2794 6.15804 32.5607 6.43934C32.842 6.72064 33 7.10218 33 7.5V27C33 27.3978 32.842 27.7794 32.5607 28.0607C32.2794 28.342 31.8978 28.5 31.5 28.5H4.5C4.10218 28.5 3.72064 28.342 3.43934 28.0607C3.15804 27.7794 3 27.3978 3 27V7.5ZM12 31.35C12 30.8535 12.399 30.45 12.9015 30.45H23.1C23.598 30.45 24.0015 30.867 24.0015 31.35V32.25H12V31.35ZM17.4975 13.344H14.715V22.5H13.074V13.344H9.837V11.931H18.774L21.6525 20.655H21.696L24.582 11.931H26.3325L22.56 22.5H20.766L17.4975 13.344Z" fill="black"/>
</svg>
