<svg width="37" height="36" viewBox="0 0 37 36" fill="none" xmlns="http://www.w3.org/2000/svg">
<path d="M29.084 3H8.08398C7.25556 3 6.58398 3.67157 6.58398 4.5V31.5C6.58398 32.3284 7.25556 33 8.08398 33H29.084C29.9124 33 30.584 32.3284 30.584 31.5V4.5C30.584 3.67157 29.9124 3 29.084 3Z" stroke="black" stroke-width="1.5"/>
<path d="M6.58398 11.625H30.584" stroke="black" stroke-width="1.5" stroke-linecap="round" stroke-linejoin="round"/>
<path d="M21.584 9C22.4124 9 23.084 8.32843 23.084 7.5C23.084 6.67157 22.4124 6 21.584 6C20.7556 6 20.084 6.67157 20.084 7.5C20.084 8.32843 20.7556 9 21.584 9Z" fill="black"/>
<path d="M26.084 9C26.9124 9 27.584 8.32843 27.584 7.5C27.584 6.67157 26.9124 6 26.084 6C25.2556 6 24.584 6.67157 24.584 7.5C24.584 8.32843 25.2556 9 26.084 9Z" fill="black"/>
<path d="M18.584 27.75C21.4835 27.75 23.834 25.3995 23.834 22.5C23.834 19.6005 21.4835 17.25 18.584 17.25C15.6845 17.25 13.334 19.6005 13.334 22.5C13.334 25.3995 15.6845 27.75 18.584 27.75Z" stroke="black" stroke-width="1.5"/>
</svg>
