<svg width="12" height="8" viewBox="0 0 12 8" fill="none" xmlns="http://www.w3.org/2000/svg">
<path d="M11.7434 0.998559C11.5791 0.839407 11.3562 0.75 11.1238 0.75C10.8914 0.75 10.6686 0.839407 10.5042 0.998559L6.16615 5.20083L1.82809 0.998559C1.66281 0.843917 1.44143 0.758348 1.21165 0.760283C0.981868 0.762217 0.762061 0.8515 0.599574 1.0089C0.437087 1.1663 0.34492 1.37923 0.342924 1.60182C0.340927 1.82441 0.42926 2.03885 0.5889 2.19897L5.54656 7.00144C5.7109 7.16059 5.93377 7.25 6.16615 7.25C6.39854 7.25 6.62141 7.16059 6.78575 7.00144L11.7434 2.19897C11.9077 2.03977 12 1.82387 12 1.59876C12 1.37365 11.9077 1.15776 11.7434 0.998559Z" fill="black"/>
</svg>
