<svg width="40" height="40" viewBox="0 0 40 40" fill="none" xmlns="http://www.w3.org/2000/svg">
<path d="M25 35V21.6667C25 21.2246 24.8244 20.8007 24.5118 20.4882C24.1993 20.1756 23.7754 20 23.3333 20H16.6667C16.2246 20 15.8007 20.1756 15.4882 20.4882C15.1756 20.8007 15 21.2246 15 21.6667V35" stroke="black" stroke-width="2" stroke-linecap="round" stroke-linejoin="round"/>
<path d="M5 16.6684C4.99988 16.1835 5.10556 15.7044 5.30965 15.2646C5.51374 14.8248 5.81133 14.4347 6.18167 14.1217L17.8483 4.1234C18.45 3.61492 19.2123 3.33594 20 3.33594C20.7877 3.33594 21.55 3.61492 22.1517 4.1234L33.8183 14.1217C34.1887 14.4347 34.4863 14.8248 34.6904 15.2646C34.8944 15.7044 35.0001 16.1835 35 16.6684V31.6684C35 32.5525 34.6488 33.4003 34.0237 34.0254C33.3986 34.6505 32.5507 35.0017 31.6667 35.0017H8.33333C7.44928 35.0017 6.60143 34.6505 5.97631 34.0254C5.35119 33.4003 5 32.5525 5 31.6684V16.6684Z" stroke="black" stroke-width="2" stroke-linecap="round" stroke-linejoin="round"/>
</svg>
