<svg width="80" height="80" viewBox="0 0 80 80" fill="none" xmlns="http://www.w3.org/2000/svg">
<path fill-rule="evenodd" clip-rule="evenodd" d="M39.9585 0C62.0276 0 79.917 17.8894 79.917 39.9585C79.917 62.0276 62.0276 79.917 39.9585 79.917C17.8894 79.917 0 62.0276 0 39.9585C0 17.8894 17.8894 0 39.9585 0ZM39.9585 43.9544C35.0925 43.9546 30.3938 45.7306 26.7442 48.9492C25.9494 49.6502 25.4656 50.6383 25.3993 51.696C25.333 52.7537 25.6896 53.7945 26.3906 54.5893C27.0916 55.3842 28.0797 55.8679 29.1374 55.9343C30.1952 56.0006 31.2359 55.644 32.0307 54.943C34.2203 53.012 37.0392 51.9464 39.9585 51.9461C42.8792 51.939 45.7007 53.0055 47.8863 54.943C48.6811 55.6445 49.7221 56.0016 50.7802 55.9357C51.8383 55.8697 52.8269 55.3861 53.5284 54.5913C54.23 53.7965 54.5871 52.7555 54.5211 51.6974C54.4552 50.6393 53.9716 49.6507 53.1768 48.9492C49.5262 45.7297 44.8259 43.9536 39.9585 43.9544ZM25.973 23.9751C24.3834 23.9751 22.8588 24.6066 21.7348 25.7306C20.6107 26.8547 19.9793 28.3792 19.9793 29.9689C19.9793 31.5585 20.6107 33.0831 21.7348 34.2071C22.8588 35.3312 24.3834 35.9627 25.973 35.9627C27.5627 35.9627 29.0872 35.3312 30.2113 34.2071C31.3353 33.0831 31.9668 31.5585 31.9668 29.9689C31.9668 28.3792 31.3353 26.8547 30.2113 25.7306C29.0872 24.6066 27.5627 23.9751 25.973 23.9751ZM53.944 23.9751C52.3543 23.9751 50.8298 24.6066 49.7058 25.7306C48.5817 26.8547 47.9502 28.3792 47.9502 29.9689C47.9502 31.5585 48.5817 33.0831 49.7058 34.2071C50.8298 35.3312 52.3543 35.9627 53.944 35.9627C55.5336 35.9627 57.0582 35.3312 58.1822 34.2071C59.3063 33.0831 59.9378 31.5585 59.9378 29.9689C59.9378 28.3792 59.3063 26.8547 58.1822 25.7306C57.0582 24.6066 55.5336 23.9751 53.944 23.9751Z" fill="#E74B3C"/>
</svg>
