<svg width="40" height="40" viewBox="0 0 40 40" fill="none" xmlns="http://www.w3.org/2000/svg">
<path d="M20.0087 4.33008C22.0674 4.33013 24.1059 4.73605 26.0077 5.52441C27.9096 6.31283 29.6377 7.46818 31.0927 8.9248L31.0975 8.92969C32.5615 10.3758 33.7156 12.1053 34.4901 14.0117L34.6346 14.373C35.3218 16.1651 35.6666 18.0717 35.6503 19.9932V20.0039C35.6557 22.0619 35.2506 24.101 34.4598 26.001L34.4579 26.0068C33.6815 27.9077 32.5265 29.6307 31.0643 31.0723L31.0585 31.0781C29.606 32.5334 27.8819 33.6894 25.9833 34.4785H25.9823C24.0824 35.2692 22.044 35.6733 19.9862 35.668H19.9784C17.8928 35.6777 15.8277 35.2571 13.912 34.4326L13.6512 34.3203L13.37 34.3623L7.28699 35.2627L7.27136 35.2646C6.9115 35.3239 6.54186 35.294 6.19617 35.1777C5.8506 35.0615 5.53887 34.8622 5.28796 34.5977C5.03707 34.3331 4.85451 34.0114 4.75671 33.6602C4.65891 33.3088 4.64828 32.9383 4.72644 32.582L4.73523 32.5439L4.74109 32.5039L5.5741 26.4209L5.61121 26.1514L5.50574 25.8994C4.72747 24.034 4.33405 22.03 4.34949 20.0088H4.35046L4.34949 19.998C4.34198 17.9464 4.7468 15.914 5.53894 14.0215L5.54187 14.0156C6.32455 12.1127 7.47327 10.3814 8.92468 8.92285C10.3794 7.46689 12.1074 6.31259 14.0087 5.52441C15.9106 4.736 17.9498 4.33008 20.0087 4.33008Z" stroke="black" stroke-width="2"/>
</svg>
