<svg width="17" height="17" viewBox="0 0 17 17" fill="none" xmlns="http://www.w3.org/2000/svg">
<path fill-rule="evenodd" clip-rule="evenodd" d="M14.0837 4.12311C14.2298 4.12311 14.3698 4.18113 14.4731 4.28441C14.5764 4.3877 14.6344 4.52777 14.6344 4.67383C14.6344 6.32159 13.9354 7.40541 13.0285 8.0582C12.1503 8.69043 11.112 8.89603 10.4122 8.89603H4.39835L7.12993 11.6276C7.18404 11.678 7.22744 11.7388 7.25754 11.8064C7.28764 11.8739 7.30382 11.9469 7.30513 12.0208C7.30643 12.0948 7.29283 12.1682 7.26513 12.2368C7.23743 12.3054 7.19621 12.3676 7.14391 12.4199C7.09162 12.4722 7.02932 12.5135 6.96075 12.5412C6.89217 12.5689 6.81872 12.5825 6.74478 12.5812C6.67083 12.5799 6.59791 12.5637 6.53035 12.5336C6.4628 12.5035 6.402 12.4601 6.35158 12.406L2.6801 8.73449C2.57697 8.63122 2.51904 8.49125 2.51904 8.34531C2.51904 8.19937 2.57697 8.05939 2.6801 7.95613L6.35158 4.28466C6.402 4.23055 6.4628 4.18715 6.53035 4.15705C6.59791 4.12695 6.67083 4.11077 6.74478 4.10946C6.81872 4.10816 6.89217 4.12176 6.96075 4.14946C7.02932 4.17716 7.09162 4.21838 7.14391 4.27068C7.19621 4.32297 7.23743 4.38527 7.26513 4.45384C7.29283 4.52241 7.30643 4.59587 7.30513 4.66981C7.30382 4.74376 7.28764 4.81668 7.25754 4.88424C7.22744 4.95179 7.18404 5.01259 7.12993 5.06301L4.39835 7.79459H10.4122C10.9358 7.79459 11.734 7.63304 12.3853 7.16383C13.008 6.71591 13.533 5.96326 13.533 4.67383C13.533 4.52777 13.591 4.3877 13.6943 4.28441C13.7976 4.18113 13.9376 4.12311 14.0837 4.12311Z" fill="black"/>
</svg>
