<svg width="131" height="131" viewBox="0 0 131 131" fill="none" xmlns="http://www.w3.org/2000/svg">
<path d="M54.4743 102.645L74.6985 122.777C75.9393 124.048 77.4908 124.974 79.1993 125.462C80.9077 125.951 82.7141 125.984 84.4396 125.56C86.1758 125.156 87.779 124.313 89.095 123.11C90.411 121.908 91.3956 120.387 91.954 118.695L125.166 19.1505C125.86 17.2854 126.003 15.2605 125.578 13.3164C125.154 11.3723 124.181 9.59091 122.774 8.18392C121.367 6.77692 119.585 5.80351 117.642 5.3794C115.697 4.95528 113.672 5.09829 111.808 5.79143L12.2632 39.0037C10.5121 39.6018 8.95251 40.6567 7.74561 42.0593C6.5387 43.4619 5.72826 45.1614 5.39804 46.9821C5.05719 48.638 5.13306 50.3526 5.61885 51.9719C6.10464 53.5912 6.98512 55.0644 8.18119 56.2592L33.6006 81.6787L32.7657 113.871L54.4743 102.645Z" stroke="#8C8C8C" stroke-width="6" stroke-linecap="round" stroke-linejoin="round"/>
<path d="M122.196 7.83594L33.5986 81.6822" stroke="#8C8C8C" stroke-width="6" stroke-linecap="round" stroke-linejoin="round"/>
</svg>
