<svg width="80" height="80" viewBox="0 0 80 80" fill="none" xmlns="http://www.w3.org/2000/svg">
<path d="M40 0C17.9032 0 0 17.9032 0 40C0 62.0968 17.9032 80 40 80C62.0968 80 80 62.0968 80 40C80 17.9032 62.0968 0 40 0ZM52.9032 27.0968C55.7581 27.0968 58.0645 29.4032 58.0645 32.2581C58.0645 35.1129 55.7581 37.4194 52.9032 37.4194C50.0484 37.4194 47.7419 35.1129 47.7419 32.2581C47.7419 29.4032 50.0484 27.0968 52.9032 27.0968ZM27.0968 27.0968C29.9516 27.0968 32.2581 29.4032 32.2581 32.2581C32.2581 35.1129 29.9516 37.4194 27.0968 37.4194C24.2419 37.4194 21.9355 35.1129 21.9355 32.2581C21.9355 29.4032 24.2419 27.0968 27.0968 27.0968ZM58.5161 54.5484C53.9193 60.0645 47.1774 63.2258 40 63.2258C32.8226 63.2258 26.0806 60.0645 21.4839 54.5484C19.2903 51.9194 23.2581 48.629 25.4516 51.2419C29.0645 55.5806 34.3548 58.0484 40 58.0484C45.6452 58.0484 50.9355 55.5645 54.5484 51.2419C56.7097 48.629 60.6935 51.9194 58.5161 54.5484Z" fill="#71DAAA"/>
</svg>
