<svg width="73" height="73" viewBox="0 0 73 73" fill="none" xmlns="http://www.w3.org/2000/svg">
<g filter="url(#filter0_d_4171_6752)">
<rect x="8.07568" y="8.02051" width="56.2753" height="56.2753" rx="3.21573" fill="#FBE300"/>
<path d="M55.2193 10.2188H17.8578C14.0703 10.2188 11 13.2891 11 17.0765V54.4381C11 58.2255 14.0703 61.2958 17.8578 61.2958H55.2193C59.0068 61.2958 62.0771 58.2255 62.0771 54.4381V17.0765C62.0771 13.2891 59.0068 10.2188 55.2193 10.2188Z" fill="#FBE300"/>
<path d="M32.2526 30.858L30.8528 35.1286L33.7162 35.1202L32.2892 30.858C32.288 30.8542 32.2855 30.8508 32.2823 30.8484C32.279 30.846 32.275 30.8447 32.2709 30.8447C32.2669 30.8447 32.2629 30.846 32.2596 30.8484C32.2563 30.8508 32.2539 30.8542 32.2526 30.858Z" fill="#3B1E1E"/>
<path d="M36.5055 17.8399C25.5913 17.8714 16.7637 24.8878 16.7887 33.5091C16.8047 39.0527 20.4772 43.9114 25.9984 46.6654L24.1559 53.6289C24.1167 53.7448 24.1161 53.8703 24.1542 53.9866C24.1923 54.1029 24.267 54.2037 24.3672 54.274C24.4674 54.3443 24.5876 54.3803 24.7099 54.3765C24.8322 54.3728 24.95 54.3296 25.0457 54.2533L33.0418 48.8224C34.2192 48.9871 35.4068 49.0679 36.5956 49.0643C47.5096 49.0329 56.3374 42.0182 56.3127 33.3956C56.288 24.7729 47.4196 17.8087 36.5055 17.8399ZM26.5864 37.6144C26.5881 38.2242 26.2271 38.6045 25.6437 38.6062C25.0603 38.6079 24.6979 38.2297 24.6962 37.6199L24.6764 30.7551L22.6882 30.7609C22.0644 30.7626 21.8418 30.3006 21.8406 29.9044C21.8369 29.7917 21.856 29.6795 21.8967 29.5744C21.9375 29.4693 21.9991 29.3735 22.0778 29.2928C22.1565 29.2122 22.2507 29.1482 22.3547 29.1048C22.4587 29.0615 22.5705 29.0396 22.6832 29.0405L28.5488 29.0233C28.6616 29.0216 28.7735 29.0427 28.8779 29.0854C28.9823 29.1281 29.077 29.1914 29.1564 29.2715C29.2357 29.3517 29.298 29.4471 29.3396 29.5519C29.3812 29.6568 29.4011 29.769 29.3983 29.8817C29.3993 30.2778 29.1789 30.7412 28.5538 30.7429L26.5667 30.7487L26.5864 37.6144ZM35.7356 38.5779C35.5293 38.5951 35.3234 38.539 35.1544 38.4193C34.9853 38.2997 34.8639 38.1243 34.8115 37.9239L34.3945 36.6323L30.4445 36.6437L30.0247 37.9229C29.9798 38.1255 29.8633 38.3051 29.6967 38.4289C29.5301 38.5527 29.3245 38.6123 29.1176 38.5969C28.9988 38.6021 28.8802 38.5836 28.7687 38.5424C28.6572 38.5013 28.5551 38.4383 28.4682 38.3571C28.3814 38.276 28.3116 38.1784 28.2629 38.0699C28.2142 37.9615 28.1877 37.8444 28.1848 37.7256C28.1862 37.5829 28.2154 37.4419 28.2706 37.3103L30.9936 30.034C31.1886 29.5006 31.6594 28.9306 32.3966 28.9285C33.0443 28.9266 33.5587 29.3258 33.8076 30.0237L36.488 37.2731C36.5496 37.428 36.5862 37.5918 36.5963 37.7582C36.5948 37.8689 36.5712 37.9782 36.5269 38.0796C36.4825 38.1811 36.4184 38.2726 36.3383 38.349C36.2581 38.4253 36.1635 38.4849 36.06 38.5242C35.9566 38.5635 35.8463 38.5817 35.7356 38.5779ZM42.9955 37.6252C42.991 37.7388 42.9641 37.8504 42.9163 37.9536C42.8686 38.0568 42.8009 38.1496 42.7172 38.2265C42.6334 38.3035 42.5353 38.3631 42.4284 38.402C42.3216 38.4409 42.2081 38.4583 42.0945 38.4532L38.5712 38.4632C37.9531 38.4651 37.5818 38.0748 37.5799 37.4198L37.5582 29.9001C37.5565 29.2913 37.9178 28.9119 38.501 28.9103C39.0842 28.9088 39.4469 29.2858 39.4488 29.8948L39.4684 36.7403L42.0897 36.7328C42.2152 36.7267 42.3406 36.7468 42.4579 36.7918C42.5752 36.8368 42.6818 36.9057 42.7711 36.9941C42.8494 37.0785 42.9096 37.178 42.9482 37.2865C42.9868 37.395 43.0029 37.5103 42.9955 37.6252ZM50.8669 37.7915C50.7951 38.4802 50.1286 38.5354 49.9257 38.536C49.8764 38.5362 49.8271 38.5339 49.778 38.5291C49.4288 38.4948 49.2319 38.2755 48.8657 37.7842L46.3725 34.4058L45.6952 35.1004L45.7026 37.6454C45.7029 37.7676 45.6784 37.8885 45.6307 38.0009C45.583 38.1134 45.513 38.215 45.425 38.2996C45.3369 38.3842 45.2327 38.4502 45.1184 38.4934C45.0042 38.5367 44.8824 38.5563 44.7604 38.5512C44.1938 38.553 43.813 38.1907 43.8115 37.6508L43.789 29.8263C43.7854 29.7017 43.8074 29.5778 43.8537 29.4622C43.9 29.3465 43.9696 29.2417 44.0582 29.1541C44.1467 29.0665 44.2524 28.998 44.3685 28.953C44.4846 28.908 44.6088 28.8873 44.7333 28.8923C44.8583 28.8838 44.9836 28.9018 45.1012 28.9452C45.2187 28.9886 45.3257 29.0564 45.4152 29.1441C45.5047 29.2318 45.5746 29.3374 45.6204 29.454C45.6662 29.5706 45.6868 29.6956 45.6808 29.8208L45.6894 32.8501L49.0089 29.3697C49.1042 29.2642 49.2198 29.179 49.3489 29.1193C49.4779 29.0596 49.6177 29.0266 49.7598 29.0223C50.2167 29.0331 50.677 29.3352 50.6665 29.8913C50.6665 30.1513 50.512 30.3233 50.203 30.6658C50.1331 30.7434 50.056 30.8289 49.9726 30.9247L47.7034 33.2273L50.4055 36.7443C50.6847 37.1064 50.9161 37.4059 50.8669 37.7915Z" fill="#3B1E1E"/>
</g>
<defs>
<filter id="filter0_d_4171_6752" x="0.0756836" y="0.0205078" width="72.2754" height="72.2754" filterUnits="userSpaceOnUse" color-interpolation-filters="sRGB">
<feFlood flood-opacity="0" result="BackgroundImageFix"/>
<feColorMatrix in="SourceAlpha" type="matrix" values="0 0 0 0 0 0 0 0 0 0 0 0 0 0 0 0 0 0 127 0" result="hardAlpha"/>
<feOffset/>
<feGaussianBlur stdDeviation="4"/>
<feComposite in2="hardAlpha" operator="out"/>
<feColorMatrix type="matrix" values="0 0 0 0 0 0 0 0 0 0 0 0 0 0 0 0 0 0 0.25 0"/>
<feBlend mode="normal" in2="BackgroundImageFix" result="effect1_dropShadow_4171_6752"/>
<feBlend mode="normal" in="SourceGraphic" in2="effect1_dropShadow_4171_6752" result="shape"/>
</filter>
</defs>
</svg>
