<svg width="74" height="73" viewBox="0 0 74 73" fill="none" xmlns="http://www.w3.org/2000/svg">
<g filter="url(#filter0_d_4171_6757)">
<rect x="8.83801" y="8.02051" width="56.2753" height="56.2753" rx="3.21573" fill="#1E0D1C" shape-rendering="crispEdges"/>
<path d="M33.0828 31.9236V30.3695C32.5431 30.2841 31.9979 30.2373 31.4515 30.2295C26.1614 30.2182 21.4779 33.6445 19.8893 38.6875C18.3007 43.7306 20.1759 49.2204 24.5181 52.2399C22.9258 50.5368 21.8607 48.4094 21.4515 46.1146C21.0423 43.8198 21.3064 41.4557 22.212 39.3076C23.1175 37.1596 24.6258 35.3193 26.5547 34.0091C28.4836 32.6989 30.7508 31.9746 33.0825 31.9238L33.0828 31.9236Z" fill="#25F4EE"/>
<path d="M33.3761 49.5264C36.3338 49.5224 38.765 47.1936 38.8945 44.2403V17.8865H43.7117C43.6134 17.3358 43.5665 16.7771 43.5716 16.2178L36.9826 16.2178V42.5463C36.873 45.5145 34.436 47.8657 31.4642 47.8704C30.5761 47.8629 29.7025 47.6446 28.9153 47.2336C29.4255 47.94 30.0955 48.516 30.8707 48.9144C31.6459 49.3129 32.5043 49.5226 33.3761 49.5264ZM52.7095 26.828V25.3632C50.9366 25.3639 49.203 24.8411 47.7264 23.8603C49.0208 25.3643 50.77 26.406 52.7095 26.828Z" fill="#25F4EE"/>
<path d="M47.7263 23.8608C46.2717 22.2053 45.4698 20.0772 45.4705 17.874H43.7116C43.9388 19.0921 44.412 20.2512 45.1022 21.2805C45.7924 22.3098 46.6853 23.1878 47.7263 23.8608ZM31.4514 36.8148C30.2178 36.8211 29.0217 37.2393 28.0533 38.003C27.0848 38.7668 26.3996 39.8321 26.1066 41.0298C25.8136 42.2274 25.9296 43.4886 26.4362 44.6128C26.9428 45.7369 27.8108 46.6596 28.9023 47.2341C28.3055 46.4105 27.9482 45.4381 27.8697 44.4243C27.7912 43.4105 27.9946 42.3948 28.4575 41.4893C28.9204 40.5838 29.6248 39.8238 30.4928 39.2934C31.3608 38.7629 32.3586 38.4825 33.376 38.4833C33.9291 38.4905 34.4783 38.5766 35.0071 38.7388V32.0382C34.4671 31.9573 33.922 31.9147 33.376 31.9109H33.0827V37.0058C32.5511 36.8633 32.0015 36.7989 31.4514 36.8148Z" fill="#FE2C55"/>
<path d="M52.7094 26.8291V31.9242C49.4273 31.9178 46.2304 30.8795 43.5715 28.9563V42.3435C43.5574 49.0235 38.1351 54.4314 31.4514 54.4314C28.9691 54.4359 26.5465 53.6704 24.5179 52.2405C26.1721 54.0188 28.3238 55.2579 30.6926 55.7965C33.0615 56.3352 35.5377 56.1484 37.7989 55.2604C40.06 54.3725 42.0011 52.8246 43.3695 50.8184C44.7378 48.8121 45.47 46.4405 45.4705 44.0125V30.6632C48.1383 32.5738 51.3391 33.5985 54.6211 33.5929V27.0324C53.9786 27.0305 53.3379 26.9624 52.7094 26.8291Z" fill="#FE2C55"/>
<path d="M43.5716 42.3428V28.9557C46.2385 30.8679 49.4399 31.8929 52.7222 31.8853V26.7904C50.7831 26.3811 49.0297 25.3529 47.7264 23.8608C46.6854 23.1878 45.7925 22.3098 45.1023 21.2805C44.412 20.2512 43.9389 19.0921 43.7117 17.874H38.8945V44.2411C38.8476 45.3888 38.4441 46.4934 37.7402 47.4014C37.0362 48.3094 36.0668 48.9757 34.9665 49.3077C33.8662 49.6396 32.6898 49.6208 31.6007 49.2538C30.5117 48.8868 29.564 48.1899 28.8895 47.2598C27.7978 46.6854 26.9296 45.7628 26.4229 44.6385C25.9162 43.5143 25.8002 42.253 26.0932 41.0552C26.3862 39.8575 27.0715 38.792 28.0401 38.0282C29.0086 37.2645 30.2049 36.8463 31.4386 36.8402C31.9919 36.8451 32.5415 36.931 33.0699 37.095V31.9999C30.7257 32.0397 28.4436 32.7602 26.5021 34.0738C24.5605 35.3873 23.0433 37.2371 22.1354 39.3975C21.2275 41.558 20.9681 43.9358 21.389 46.241C21.8098 48.5462 22.8927 50.6792 24.5055 52.3799C26.554 53.7627 28.98 54.479 31.4515 54.4308C38.1352 54.4308 43.5575 49.0228 43.5716 42.3428Z" fill="#EFEFEF"/>
</g>
<defs>
<filter id="filter0_d_4171_6757" x="0.838013" y="0.0205078" width="72.2753" height="72.2754" filterUnits="userSpaceOnUse" color-interpolation-filters="sRGB">
<feFlood flood-opacity="0" result="BackgroundImageFix"/>
<feColorMatrix in="SourceAlpha" type="matrix" values="0 0 0 0 0 0 0 0 0 0 0 0 0 0 0 0 0 0 127 0" result="hardAlpha"/>
<feOffset/>
<feGaussianBlur stdDeviation="4"/>
<feComposite in2="hardAlpha" operator="out"/>
<feColorMatrix type="matrix" values="0 0 0 0 0 0 0 0 0 0 0 0 0 0 0 0 0 0 0.25 0"/>
<feBlend mode="normal" in2="BackgroundImageFix" result="effect1_dropShadow_4171_6757"/>
<feBlend mode="normal" in="SourceGraphic" in2="effect1_dropShadow_4171_6757" result="shape"/>
</filter>
</defs>
</svg>
