<svg width="80" height="63" viewBox="0 0 80 63" fill="none" xmlns="http://www.w3.org/2000/svg">
<path d="M46.8043 43.6261H29.4229C26.2678 43.6261 25.31 42.4429 25.31 39.5977V33.5128C25.31 31.6254 26.6904 30.7802 28.2116 30.7802C29.761 30.7802 31.0568 31.6535 31.0568 33.5128V38.1046C31.0568 38.668 31.2259 38.8089 31.8738 38.8089H46.8043C48.4382 38.8089 49.0579 40.0484 49.0579 41.1752C49.0579 42.3302 48.41 43.6261 46.8043 43.6261ZM26.2678 45.5417H47.9029C49.5932 45.5417 50.2693 46.6967 50.2693 47.8517C50.2693 49.0349 49.565 50.1617 47.9029 50.1617H39.9588V56.7818H34.212V50.1617H26.2678C24.6057 50.1617 23.9015 49.0349 23.9015 47.8517C23.9015 46.6967 24.5776 45.5417 26.2678 45.5417ZM77.6512 56.641H72.0171V32.9776C72.0171 31.1465 73.3411 30.1887 74.8341 30.1887C76.3272 30.1887 77.6512 31.1465 77.6512 32.9776V56.641ZM68.1013 55.4578H57.5655C54.1568 55.4578 52.8328 54.2183 52.8328 50.8096V45.4009C52.8328 41.9922 54.1568 40.809 57.5655 40.809H62.7771V36.6961C62.7771 36.3299 62.6644 35.9355 62.0728 35.9355H55.4809C53.7906 35.9355 53.0863 34.7523 53.0863 33.5973C53.0863 32.4705 53.7624 31.231 55.4809 31.231H63.6222C67.3971 31.231 68.4112 32.3015 68.4112 35.4002V45.4009H59.7346C58.7768 45.4009 58.4669 45.6262 58.4669 46.584V49.6546C58.4669 50.6124 58.7768 50.8378 59.7346 50.8378H68.1013C69.8198 50.8378 70.4959 52.021 70.4959 53.1478C70.4959 54.3028 69.7916 55.4578 68.1013 55.4578Z" fill="#FF4C61"/>
<path d="M19.1397 55.1582H4C3.44771 55.1582 3 54.7105 3 54.1582V25.5413C3 25.1945 3.17968 24.8725 3.4748 24.6903L38.9027 2.82517C39.2255 2.62594 39.6333 2.62652 39.9555 2.82667L75.6286 24.9834" stroke="#FF4C61" stroke-width="5" stroke-linecap="round"/>
<path d="M54.543 12.0859V3C54.543 2.44772 54.9907 2 55.543 2H63.6953C64.2476 2 64.6953 2.44772 64.6953 3V17.5" stroke="#FF4C61" stroke-width="4" stroke-linecap="round"/>
</svg>
