<svg width="58" height="76" viewBox="0 0 58 76" fill="none" xmlns="http://www.w3.org/2000/svg">
<path d="M29 0C13.0181 0 0 13.0181 0 29C0 33.4788 1.85655 38.2464 4.40664 43.1828C6.95673 48.1198 10.2889 53.1851 13.6051 57.7734C20.2374 66.9496 26.8477 74.2672 26.8477 74.2672C27.1196 74.5683 27.4516 74.8089 27.8224 74.9737C28.1931 75.1384 28.5943 75.2235 29 75.2235C29.4057 75.2235 29.8069 75.1384 30.1776 74.9737C30.5484 74.8089 30.8804 74.5683 31.1523 74.2672C31.1523 74.2672 37.7626 66.9496 44.3949 57.7734C47.7111 53.1851 51.0433 48.1198 53.5934 43.1828C56.1435 38.2464 58 33.4788 58 29C58 13.0181 44.9819 0 29 0ZM29 5.8C41.8474 5.8 52.2 16.1524 52.2 29C52.2 31.7289 50.794 35.9834 48.4504 40.5207C46.1067 45.0575 42.9139 49.9357 39.7051 54.375C34.363 61.7665 30.6445 65.8333 29 67.6969C27.3555 65.8333 23.637 61.7665 18.2949 54.375C15.0861 49.9357 11.8933 45.0575 9.54961 40.5207C7.20595 35.9834 5.8 31.7289 5.8 29C5.8 16.1524 16.1526 5.8 29 5.8ZM29 14.5C22.6278 14.5 17.4 19.7281 17.4 26.1C17.4 32.4725 22.6278 37.7 29 37.7C35.3722 37.7 40.6 32.4725 40.6 26.1C40.6 19.7281 35.3722 14.5 29 14.5ZM29 20.3C32.2376 20.3 34.8 22.8624 34.8 26.1C34.8 29.3376 32.2376 31.9 29 31.9C25.7624 31.9 23.2 29.3376 23.2 26.1C23.2 22.8624 25.7624 20.3 29 20.3Z" fill="white"/>
<path d="M29.0008 5.7998C16.1534 5.7998 5.80078 16.1522 5.80078 28.9998C5.80078 31.7287 7.20673 35.9832 9.55039 40.5205C11.894 45.0573 15.0869 49.9355 18.2957 54.3748C23.6378 61.7663 27.3563 65.8331 29.0008 67.6967C30.6452 65.8331 34.3638 61.7663 39.7059 54.3748C42.9147 49.9355 46.1075 45.0573 48.4512 40.5205C50.7948 35.9832 52.2008 31.7287 52.2008 28.9998C52.2008 16.1522 41.8481 5.7998 29.0008 5.7998ZM29.0008 14.4998C35.3729 14.4998 40.6008 19.7279 40.6008 26.0998C40.6008 32.4723 35.3729 37.6998 29.0008 37.6998C22.6286 37.6998 17.4008 32.4723 17.4008 26.0998C17.4008 19.7279 22.6286 14.4998 29.0008 14.4998Z" fill="#FF4C61"/>
</svg>
