<svg width="1000" height="900" viewBox="0 0 1000 900" fill="none" xmlns="http://www.w3.org/2000/svg">
<rect width="1000" height="900" fill="#EAEAEA"/>
<path d="M542.442 535.078H408.547C384.241 535.078 376.863 525.963 376.863 504.045V457.171C376.863 442.631 387.497 436.121 399.215 436.121C411.151 436.121 421.133 442.848 421.133 457.171V492.544C421.133 496.884 422.435 497.969 427.427 497.969H542.442C555.029 497.969 559.803 507.517 559.803 516.198C559.803 525.095 554.812 535.078 542.442 535.078ZM384.241 549.834H550.906C563.926 549.834 569.135 558.732 569.135 567.629C569.135 576.744 563.709 585.424 550.906 585.424H489.709V636.422H445.438V585.424H384.241C371.438 585.424 366.013 576.744 366.013 567.629C366.013 558.732 371.221 549.834 384.241 549.834ZM780.069 635.337H736.667V453.048C736.667 438.942 746.866 431.564 758.368 431.564C769.869 431.564 780.069 438.942 780.069 453.048V635.337ZM706.502 626.222H625.34C599.082 626.222 588.883 616.674 588.883 590.415V548.749C588.883 522.491 599.082 513.377 625.34 513.377H665.487V481.693C665.487 478.872 664.619 475.834 660.062 475.834H609.282C596.261 475.834 590.836 466.719 590.836 457.822C590.836 449.141 596.044 439.593 609.282 439.593H671.998C701.077 439.593 708.889 447.839 708.889 471.711V548.749H642.05C634.672 548.749 632.285 550.485 632.285 557.864V581.518C632.285 588.896 634.672 590.632 642.05 590.632H706.502C719.74 590.632 724.948 599.747 724.948 608.427C724.948 617.325 719.523 626.222 706.502 626.222Z" fill="#C6C6C6"/>
<path d="M329.331 625.499H212.703C208.449 625.499 205 622.05 205 617.796V397.348C205 394.677 206.384 392.196 208.658 390.793L481.573 222.356C484.06 220.822 487.201 220.826 489.683 222.368L764.488 393.05" stroke="#C6C6C6" stroke-width="38.517" stroke-linecap="round"/>
<path d="M602.056 293.696V223.703C602.056 219.449 605.505 216 609.759 216H672.56C676.815 216 680.264 219.449 680.264 223.703V335.403" stroke="#C6C6C6" stroke-width="30.8136" stroke-linecap="round"/>
</svg>
