<svg width="6" height="10" viewBox="0 0 6 10" fill="none" xmlns="http://www.w3.org/2000/svg">
<path d="M0.225885 4.90971C0.23138 4.72289 0.297318 4.56354 0.445677 4.42068L4.73161 0.228151C4.847 0.107266 5.00086 0.0468231 5.17669 0.0468231C5.53385 0.0468231 5.81409 0.321563 5.81409 0.678724C5.81409 0.854557 5.74266 1.01391 5.62177 1.14029L1.75893 4.90971L5.62177 8.67914C5.74266 8.80003 5.81409 8.95937 5.81409 9.13521C5.81409 9.49786 5.53385 9.7726 5.17669 9.7726C5.00086 9.7726 4.847 9.71216 4.73161 9.59128L0.445677 5.39875C0.297318 5.25589 0.225885 5.09654 0.225885 4.90971Z" fill="#0A0A0A"/>
</svg>
