<svg width="7" height="10" viewBox="0 0 7 10" fill="none" xmlns="http://www.w3.org/2000/svg">
<path d="M6.45929 4.90971C6.45929 5.09654 6.39336 5.25589 6.245 5.39875L1.95906 9.59128C1.83817 9.71216 1.68981 9.7726 1.51398 9.7726C1.15682 9.7726 0.87109 9.49786 0.87109 9.13521C0.87109 8.95937 0.948017 8.80003 1.06341 8.67914L4.93174 4.90971L1.06341 1.14029C0.942523 1.01391 0.87109 0.854557 0.87109 0.678724C0.87109 0.321563 1.15682 0.0468231 1.51398 0.0468231C1.68981 0.0468231 1.83817 0.107266 1.95906 0.228151L6.245 4.42068C6.38786 4.56354 6.45929 4.72289 6.45929 4.90971Z" fill="#0A0A0A"/>
</svg>
