<svg width="6" height="10" viewBox="0 0 6 10" fill="none" xmlns="http://www.w3.org/2000/svg">
<path d="M0.862586 0.713003C0.740161 0.839422 0.671387 1.01086 0.671387 1.18962C0.671387 1.36837 0.740161 1.53981 0.862586 1.66623L4.0951 5.0032L0.862586 8.34017C0.743631 8.46731 0.677808 8.6376 0.679296 8.81435C0.680784 8.99111 0.749463 9.16019 0.870541 9.28518C0.991619 9.41017 1.15541 9.48107 1.32663 9.48261C1.49785 9.48414 1.66281 9.41619 1.78598 9.29339L5.48019 5.47981C5.60261 5.35339 5.67139 5.18195 5.67139 5.0032C5.67139 4.82444 5.60261 4.653 5.48019 4.52659L1.78598 0.713003C1.66351 0.586622 1.49744 0.515625 1.32428 0.515625C1.15112 0.515625 0.985048 0.586622 0.862586 0.713003Z" fill="#8C8C8C"/>
</svg>
