<svg width="28" height="29" viewBox="0 0 28 29" fill="none" xmlns="http://www.w3.org/2000/svg">
<path d="M7.00024 13.1641C6.03375 13.1641 5.25024 13.9476 5.25024 14.9141C5.25024 15.8806 6.03375 16.6641 7.00024 16.6641C7.96674 16.6641 8.75024 15.8806 8.75024 14.9141C8.75024 13.9476 7.96674 13.1641 7.00024 13.1641Z" fill="black"/>
<path d="M12.2502 14.9141C12.2502 13.9476 13.0337 13.1641 14.0002 13.1641C14.9667 13.1641 15.7502 13.9476 15.7502 14.9141C15.7502 15.8806 14.9667 16.6641 14.0002 16.6641C13.0337 16.6641 12.2502 15.8806 12.2502 14.9141Z" fill="black"/>
<path d="M19.2502 14.9141C19.2502 13.9476 20.0337 13.1641 21.0002 13.1641C21.9667 13.1641 22.7502 13.9476 22.7502 14.9141C22.7502 15.8806 21.9667 16.6641 21.0002 16.6641C20.0337 16.6641 19.2502 15.8806 19.2502 14.9141Z" fill="black"/>
</svg>
