<svg width="28" height="28" viewBox="0 0 28 28" fill="none" xmlns="http://www.w3.org/2000/svg">
<path d="M11.6154 22.001L15.9714 26.337C16.2386 26.6108 16.5728 26.8102 16.9408 26.9154C17.3088 27.0206 17.6978 27.0278 18.0695 26.9364C18.4434 26.8494 18.7887 26.6678 19.0722 26.4088C19.3556 26.1498 19.5677 25.8224 19.688 25.4578L26.8413 4.01752C26.9907 3.6158 27.0215 3.17966 26.9301 2.76094C26.8387 2.3422 26.6291 1.95852 26.3261 1.65548C26.0231 1.35243 25.6393 1.14278 25.2207 1.05143C24.8019 0.96008 24.3657 0.990882 23.9641 1.14017L2.52378 8.29358C2.14662 8.4224 1.81071 8.64962 1.55077 8.95172C1.29082 9.25382 1.11626 9.61986 1.04514 10.012C0.971722 10.3687 0.988064 10.738 1.0927 11.0867C1.19733 11.4355 1.38697 11.7528 1.64458 12.0102L7.11954 17.4851L6.9397 24.4188L11.6154 22.001Z" stroke="#8C8C8C" stroke-width="2" stroke-linecap="round" stroke-linejoin="round"/>
<path d="M26.2014 1.58008L7.1189 17.4854" stroke="#8C8C8C" stroke-width="2" stroke-linecap="round" stroke-linejoin="round"/>
</svg>
